<svg xmlns="http://www.w3.org/2000/svg" width="139" height="30.317" viewBox="0 0 139 30.317">
  <g id="Group_2240" data-name="Group 2240" transform="translate(-177 -56)">
    <g id="Group_476" data-name="Group 476" transform="translate(163.183 -65.813)">
      <g id="Group_474" data-name="Group 474" transform="translate(13.816 121.813)">
        <path id="Path_2473" data-name="Path 2473" d="M108.036,152.059h1.893a5.571,5.571,0,0,0,5.079-3.283l12.139-26.962h-13.9L103.078,144.39A5.437,5.437,0,0,0,108.036,152.059Z" transform="translate(-77.264 -121.813)" fill="#a5a5a4"/>
        <path id="Path_2474" data-name="Path 2474" d="M80.642,152.059H78.537a5.219,5.219,0,0,1-4.759-3.077L61.545,121.813h13.9l10.159,22.563A5.447,5.447,0,0,1,80.642,152.059Z" transform="translate(-47.927 -121.813)" fill="#f09620"/>
        <path id="Path_2475" data-name="Path 2475" d="M102.652,168.182l6.061-13.461,5.982,13.488a5.28,5.28,0,0,1-4.818,7.44h-2.419A5.28,5.28,0,0,1,102.652,168.182Z" transform="translate(-76.963 -145.332)" fill="#e55626"/>
        <path id="Path_2476" data-name="Path 2476" d="M13.816,152.059h13.9l13.618-30.246h-13.9Z" transform="translate(-13.816 -121.813)" fill="#fbcb31"/>
        <path id="Path_2477" data-name="Path 2477" d="M167.444,152.059h-13.9l-13.618-30.246h13.9Z" transform="translate(-103.942 -121.813)" fill="#656565"/>
      </g>
      <path id="Path_2478" data-name="Path 2478" d="M449.577,133.371H464.2v2.078H452.014v8.887h10.965v2.007H452.086v10.75h-2.58Z" transform="translate(-311.381 -8.26)" fill="#656565"/>
      <path id="Path_2479" data-name="Path 2479" d="M274.74,133.484v23.658h5.193v-12.55l5.482,7.357h0l5.337-7.357v12.55h5.193V133.484H290.9l-5.482,10.242-5.482-10.242Z" transform="translate(-186.479 -8.341)" fill="#656565"/>
      <path id="Path_2480" data-name="Path 2480" d="M383.556,150.359a7.9,7.9,0,0,1-7.806,6.838h0a7.9,7.9,0,0,1-7.877-7.878v-7.83a7.9,7.9,0,0,1,7.877-7.877h0a7.9,7.9,0,0,1,7.806,6.838h-2.537a5.393,5.393,0,0,0-5.269-4.326h0a5.389,5.389,0,0,0-5.373,5.373v7.815a5.389,5.389,0,0,0,5.373,5.373h0a5.394,5.394,0,0,0,5.269-4.326Z" transform="translate(-253.039 -8.433)" fill="#656565"/>
    </g>
  </g>
</svg>
