<svg xmlns="http://www.w3.org/2000/svg" width="22" height="22" viewBox="0 0 22 22">
  <g id="Group_2248" data-name="Group 2248" transform="translate(-987 -2229.994)">
    <path id="Path_2484" data-name="Path 2484" d="M1163.777,64h-15.555A3.227,3.227,0,0,0,1145,67.223V82.777A3.227,3.227,0,0,0,1148.223,86h15.555A3.227,3.227,0,0,0,1167,82.777V67.223A3.227,3.227,0,0,0,1163.777,64Zm-7.735,16.758a5.8,5.8,0,1,1,5.8-5.8,5.807,5.807,0,0,1-5.8,5.8Zm6.446-10.312a1.934,1.934,0,1,1,1.934-1.934,1.936,1.936,0,0,1-1.934,1.934Zm0,0" transform="translate(-158 2165.994)" fill="#656565"/>
    <path id="Path_2485" data-name="Path 2485" d="M1440.185,131.5a1.185,1.185,0,1,0,1.185,1.185,1.186,1.186,0,0,0-1.185-1.185Zm0,0" transform="translate(-434.501 2379.066) rotate(-11)" fill="#656565"/>
    <path id="Path_2486" data-name="Path 2486" d="M1263.25,176.5a4.25,4.25,0,1,0,4.25,4.25,4.255,4.255,0,0,0-4.25-4.25Zm0,0" transform="translate(-265.213 2060.221)" fill="#656565"/>
  </g>
</svg>
