<svg xmlns="http://www.w3.org/2000/svg" width="22" height="22" viewBox="0 0 22 22">
  <path id="Path_2483" data-name="Path 2483" d="M76.106,62.678a11.043,11.043,0,0,0-11,11,10.925,10.925,0,0,0,1.557,5.633l-1.557,5.367,5.367-1.557a10.925,10.925,0,0,0,5.633,1.557,11,11,0,0,0,0-22Zm6.877,15.648-.512.512c-.724.724-2.389.667-3.459.46-3.558-.687-7.706-4.708-8.506-8.19-.4-1.725-.177-3.225.395-3.8l.512-.512a.725.725,0,0,1,1.024,0l2.047,2.048a.724.724,0,0,1,0,1.023l-.512.512a1.45,1.45,0,0,0,0,2.048l3.381,3.336a1.447,1.447,0,0,0,2.048,0l.512-.512a.756.756,0,0,1,1.024,0L82.983,77.3a.723.723,0,0,1,0,1.024Zm0,0" transform="translate(-65.106 -62.678)" fill="#656565"/>
</svg>
