<svg xmlns="http://www.w3.org/2000/svg" width="12.071" height="17.694" viewBox="0 0 12.071 17.694">
  <g id="Group_2238" data-name="Group 2238" transform="translate(1 1)">
    <g id="Path_2440" data-name="Path 2440" transform="translate(-7 -4)" fill="none" stroke-linecap="square" stroke-linejoin="round">
      <path d="M7,9.273A5.16,5.16,0,0,1,12.036,4a5.16,5.16,0,0,1,5.036,5.273c0,3.037-2.9,7.583-5.036,10.42C9.941,16.878,7,12.279,7,9.273Z" stroke="none"/>
      <path d="M 12.03560543060303 3.999998092651367 C 9.255955696105957 3.999998092651367 6.999996185302734 6.362468719482422 6.999996185302734 9.273367881774902 C 6.999996185302734 12.27918815612793 9.9407958984375 16.87756729125977 12.03560543060303 19.69355773925781 C 14.17070579528809 16.85647773742676 17.07121658325195 12.31082820892334 17.07121658325195 9.273367881774902 C 17.07121658325195 6.362468719482422 14.8152551651001 3.999998092651367 12.03560543060303 3.999998092651367 M 12.03560543060303 2.999998092651367 C 15.36365509033203 2.999998092651367 18.07121658325195 5.814218521118164 18.07121658325195 9.273367881774902 C 18.07121658325195 10.79675769805908 17.45427513122559 12.73258781433105 16.23754501342773 15.02709770202637 C 15.1305456161499 17.11465835571289 13.77600574493408 19.04397773742676 12.83461570739746 20.29486846923828 C 12.64567089080811 20.54594993591309 12.34972476959229 20.69356155395508 12.03559398651123 20.69356155395508 C 12.03467082977295 20.69356155395508 12.03374862670898 20.69355964660645 12.0328254699707 20.69355773925781 C 11.71766567230225 20.69267845153809 11.42136573791504 20.54328727722168 11.23326587677002 20.29041862487793 C 10.29709529876709 19.03196716308594 8.950045585632324 17.09669876098633 7.849075317382812 15.02370834350586 C 6.622116088867188 12.71348762512207 5.999996185302734 10.77879810333252 5.999996185302734 9.273367881774902 C 5.999996185302734 5.814218521118164 8.707555770874023 2.999998092651367 12.03560543060303 2.999998092651367 Z" stroke="none" fill="#656565"/>
    </g>
    <g id="Ellipse_87" data-name="Ellipse 87" transform="translate(2.685 2.602)" fill="none" stroke="#656565" stroke-linejoin="bevel" stroke-width="1">
      <ellipse cx="2.35" cy="2.35" rx="2.35" ry="2.35" stroke="none"/>
      <ellipse cx="2.35" cy="2.35" rx="2.85" ry="2.85" fill="none"/>
    </g>
  </g>
</svg>
